<!-- Generated by IcoMoon.io -->
<svg version="1.1" xmlns="http://www.w3.org/2000/svg" width="20" height="20" viewBox="0 0 32 32">
<title>barometer</title>
<path fill="#fff" opacity="0.54" d="M18.489 4.12c0.206-0.391 0.324-0.836 0.324-1.308 0-1.551-1.262-2.813-2.813-2.813s-2.813 1.262-2.813 2.813c0 0.472 0.117 0.917 0.324 1.308-6.564 1.178-11.561 6.931-11.561 13.829 0 7.747 6.303 14.050 14.050 14.050s14.050-6.303 14.050-14.050c0-6.898-4.997-12.651-11.561-13.829zM16 1.875c0.517 0 0.938 0.421 0.938 0.938s-0.421 0.938-0.938 0.938c-0.517 0-0.938-0.421-0.938-0.938s0.421-0.938 0.938-0.938zM16 30.125c-6.713 0-12.175-5.462-12.175-12.175s5.462-12.175 12.175-12.175 12.175 5.462 12.175 12.175c0 6.713-5.462 12.175-12.175 12.175z"></path>
<path fill="#fff" opacity="0.54" d="M23.332 10.69c-0.013-0.015-0.026-0.030-0.040-0.044s-0.031-0.028-0.047-0.042c-1.866-1.84-4.426-2.978-7.245-2.978-2.832 0-5.4 1.146-7.267 2.998-0.008 0.008-0.017 0.014-0.025 0.022-0.007 0.007-0.012 0.014-0.019 0.021-1.862 1.869-3.014 4.444-3.014 7.284 0 0.518 0.42 0.937 0.938 0.937h1.063c0.518 0 0.937-0.42 0.937-0.937s-0.42-0.938-0.938-0.938h-0.073c0.181-1.631 0.828-3.124 1.805-4.342l0.052 0.052c0.183 0.183 0.423 0.275 0.663 0.275s0.48-0.091 0.663-0.275c0.366-0.366 0.366-0.96 0-1.326l-0.050-0.050c1.215-0.971 2.703-1.614 4.328-1.794v0.073c0 0.518 0.42 0.938 0.938 0.938s0.938-0.42 0.938-0.938v-0.073c1.625 0.18 3.112 0.824 4.327 1.795l-0.050 0.050c-0.366 0.366-0.366 0.96 0 1.326 0.183 0.183 0.423 0.275 0.663 0.275s0.48-0.091 0.663-0.275l0.051-0.051c0.975 1.214 1.621 2.703 1.804 4.329h-0.084c-0.518 0-0.937 0.42-0.937 0.937s0.42 0.938 0.937 0.938c0 0 1.076-0 1.076-0 0.518-0.001 0.937-0.421 0.936-0.939-0.004-2.822-1.147-5.383-2.993-7.246z"></path>
<path fill="#fff" opacity="0.54" d="M20.251 13.698c-0.366-0.366-0.96-0.366-1.326 0l-3.915 3.915c-0.433-0.207-0.917-0.303-1.407-0.268-0.517 0.036-0.906 0.484-0.87 1s0.484 0.906 1.001 0.87c0.271-0.019 0.536 0.080 0.728 0.272 0.189 0.189 0.289 0.45 0.273 0.717-0.030 0.517 0.365 0.96 0.882 0.99 0.018 0.001 0.037 0.002 0.055 0.002 0.493-0 0.906-0.385 0.935-0.883 0.028-0.478-0.069-0.95-0.271-1.374l3.915-3.915c0.366-0.366 0.366-0.96 0-1.326z"></path>
<path fill="#fff" opacity="0.54" d="M21.375 24.688h-10.75c-0.518 0-0.938 0.42-0.938 0.937s0.42 0.938 0.938 0.938h10.75c0.518 0 0.937-0.42 0.937-0.938s-0.42-0.937-0.937-0.937z"></path>
</svg>
