<svg width="20" height="20" viewBox="0 0 20 20" fill="none" xmlns="http://www.w3.org/2000/svg">
<g clip-path="url(#clip0)">
<path d="M10 3.18918C10.3236 3.18918 10.5859 2.92684 10.5859 2.60324V0.585938C10.5859 0.262344 10.3236 0 10 0C9.67641 0 9.41406 0.262344 9.41406 0.585938V2.60324C9.41406 2.92684 9.67641 3.18918 10 3.18918Z" fill="#FF6B09"/>
<path d="M19.414 9.41406H17.3967C17.0731 9.41406 16.8108 9.67641 16.8108 10C16.8108 10.3236 17.0731 10.5859 17.3967 10.5859H19.414C19.7376 10.5859 20 10.3236 20 10C20 9.67641 19.7376 9.41406 19.414 9.41406Z" fill="#FF6B09"/>
<path d="M3.18918 10C3.18918 9.67641 2.92684 9.41406 2.60324 9.41406H0.585938C0.262344 9.41406 0 9.67641 0 10C0 10.3236 0.262344 10.5859 0.585938 10.5859H2.60324C2.92684 10.5859 3.18918 10.3236 3.18918 10Z" fill="#FF6B09"/>
<path d="M15.2304 5.35554C15.3803 5.35554 15.5303 5.29831 15.6447 5.1839L17.0711 3.75745C17.2999 3.52866 17.2999 3.15765 17.0711 2.92882C16.8423 2.70003 16.4713 2.70003 16.2425 2.92882L14.816 4.35527C14.5872 4.58406 14.5872 4.95507 14.816 5.1839C14.9305 5.29835 15.0804 5.35554 15.2304 5.35554Z" fill="#FF6B09"/>
<path d="M15.6447 14.8159C15.4159 14.5871 15.0449 14.5871 14.816 14.8159C14.5872 15.0447 14.5872 15.4157 14.816 15.6445L16.2425 17.071C16.3569 17.1854 16.5069 17.2426 16.6568 17.2426C16.8067 17.2426 16.9567 17.1854 17.0711 17.071C17.2999 16.8422 17.2999 16.4712 17.0711 16.2424L15.6447 14.8159Z" fill="#FF6B09"/>
<path d="M4.35539 14.8158L2.92895 16.2423C2.70012 16.4712 2.70012 16.8421 2.92895 17.071C3.04336 17.1854 3.19332 17.2426 3.34324 17.2426C3.49317 17.2426 3.64317 17.1854 3.75754 17.071L5.18399 15.6445C5.41282 15.4157 5.41282 15.0447 5.18399 14.8158C4.95524 14.5871 4.58418 14.5871 4.35539 14.8158Z" fill="#FF6B09"/>
<path d="M4.35543 5.1839C4.46985 5.29831 4.61981 5.35554 4.76973 5.35554C4.91965 5.35554 5.06965 5.29831 5.18403 5.1839C5.41286 4.95507 5.41286 4.58409 5.18403 4.35527L3.75758 2.92882C3.52879 2.70003 3.15777 2.70003 2.92895 2.92882C2.70012 3.15765 2.70012 3.52863 2.92895 3.75745L4.35543 5.1839Z" fill="#FF6B09"/>
<path d="M12.6138 3.71079C12.6873 3.74133 12.7635 3.75579 12.8384 3.75579C13.0681 3.75579 13.2861 3.61989 13.3797 3.39457L14.1538 1.53176C14.278 1.23293 14.1365 0.890004 13.8376 0.765824C13.5388 0.641684 13.1959 0.783168 13.0717 1.08207L12.2976 2.94489C12.1734 3.24368 12.315 3.58657 12.6138 3.71079Z" fill="#FF6B09"/>
<path d="M18.918 13.0717L17.0552 12.2976C16.7563 12.1734 16.4135 12.3149 16.2893 12.6138C16.1651 12.9126 16.3067 13.2555 16.6055 13.3797L18.4683 14.1539C18.5418 14.1844 18.618 14.1989 18.6929 14.1989C18.9226 14.1989 19.1406 14.063 19.2342 13.8377C19.3584 13.5389 19.2168 13.1959 18.918 13.0717Z" fill="#FF6B09"/>
<path d="M7.38636 16.2893C7.0875 16.1651 6.74461 16.3066 6.62043 16.6055L5.84628 18.4683C5.7221 18.7671 5.86367 19.1101 6.1625 19.2342C6.23605 19.2648 6.31218 19.2792 6.38714 19.2792C6.61679 19.2792 6.8348 19.1433 6.92843 18.918L7.70257 17.0552C7.82672 16.7564 7.68515 16.4135 7.38636 16.2893Z" fill="#FF6B09"/>
<path d="M1.08193 6.92817L2.94474 7.70231C3.0183 7.73286 3.09443 7.74731 3.16939 7.74731C3.39904 7.74731 3.61705 7.61141 3.71068 7.3861C3.83486 7.08727 3.6933 6.74434 3.39447 6.62016L1.53166 5.84602C1.23283 5.72188 0.889897 5.8634 0.765718 6.16223C0.641538 6.46106 0.7831 6.80399 1.08193 6.92817Z" fill="#FF6B09"/>
<path d="M16.2955 7.40088C16.3888 7.62685 16.6071 7.76338 16.8373 7.76338C16.9118 7.76338 16.9875 7.74908 17.0607 7.71889L18.9253 6.94908C19.2244 6.82556 19.3668 6.48298 19.2433 6.18388C19.1198 5.88474 18.7771 5.7424 18.4781 5.86583L16.6135 6.63564C16.3143 6.7592 16.172 7.10177 16.2955 7.40088Z" fill="#FF6B09"/>
<path d="M13.3642 16.6136C13.2407 16.3144 12.898 16.1721 12.599 16.2955C12.2999 16.419 12.1575 16.7616 12.2809 17.0607L13.0507 18.9254C13.1441 19.1513 13.3624 19.2879 13.5926 19.2879C13.6671 19.2879 13.7428 19.2736 13.8159 19.2434C14.115 19.1199 14.2575 18.7773 14.134 18.4782L13.3642 16.6136Z" fill="#FF6B09"/>
<path d="M3.70462 12.5989C3.5811 12.2998 3.23848 12.1575 2.93942 12.2809L1.07481 13.0507C0.775672 13.1742 0.633289 13.5168 0.756766 13.8159C0.850086 14.0419 1.06845 14.1784 1.2986 14.1784C1.37309 14.1784 1.44884 14.1641 1.52196 14.1339L3.38657 13.3641C3.68575 13.2406 3.82809 12.898 3.70462 12.5989Z" fill="#FF6B09"/>
<path d="M6.6357 3.38664C6.72902 3.61262 6.94738 3.74914 7.17754 3.74914C7.25203 3.74914 7.32777 3.73485 7.4009 3.70465C7.70004 3.58114 7.84242 3.23856 7.71894 2.93946L6.94914 1.07485C6.82562 0.775745 6.48297 0.633402 6.18394 0.7568C5.8848 0.880316 5.74242 1.22289 5.8659 1.522L6.6357 3.38664Z" fill="#FF6B09"/>
<path d="M10.7185 17.8639L10.5859 17.9965V15.398C13.3053 15.1048 15.4297 12.796 15.4297 10C15.4297 7.00611 12.9939 4.57037 10 4.57037C7.00605 4.57037 4.57031 7.00611 4.57031 10C4.57031 12.796 6.69469 15.1049 9.41406 15.398V18.0309L9.23332 17.8554C9.00125 17.6299 8.63027 17.6353 8.40477 17.8673C8.1793 18.0995 8.18465 18.4704 8.41676 18.6959L9.58871 19.8344C9.7025 19.9449 9.84977 20 9.99695 20C10.147 20 10.297 19.9427 10.4113 19.8284L11.5471 18.6926C11.7759 18.4638 11.7759 18.0928 11.5471 17.8639C11.3183 17.6351 10.9473 17.6351 10.7185 17.8639ZM5.74219 10C5.74219 7.65224 7.65223 5.7422 10 5.7422C12.3478 5.7422 14.2578 7.65224 14.2578 10C14.2578 12.149 12.6574 13.9309 10.5859 14.2173V12.8264C10.5859 12.5028 10.3236 12.2405 10 12.2405C9.67641 12.2405 9.41406 12.5028 9.41406 12.8264V14.2173C7.34258 13.9309 5.74219 12.149 5.74219 10Z" fill="#FF6B09"/>
</g>
<defs>
<clipPath id="clip0">
<rect width="20" height="20" fill="white"/>
</clipPath>
</defs>
</svg>
