<!-- Generated by IcoMoon.io -->
<svg version="1.1" xmlns="http://www.w3.org/2000/svg" width="20" height="20" viewBox="0 0 32 32">
<title>wind</title>
<path fill="#fff" opacity="0.54" d="M25.316 2.643c-1.516 0-3.002 0.523-4.184 1.472-0.404 0.324-0.468 0.914-0.144 1.318s0.914 0.468 1.318 0.144c0.851-0.683 1.92-1.059 3.011-1.059 2.652 0 4.809 2.157 4.809 4.809s-2.158 4.809-4.809 4.809h-17.628c-0.518 0-0.938 0.42-0.938 0.938s0.42 0.938 0.938 0.938h17.628c3.686 0 6.684-2.999 6.684-6.684s-2.999-6.684-6.684-6.684z"></path>
<path fill="#fff" opacity="0.54" d="M5.891 12.268h10.015c0.518 0 0.937-0.42 0.937-0.938s-0.42-0.938-0.937-0.938h-10.015c-0.518 0-0.938 0.42-0.938 0.938s0.42 0.938 0.938 0.938z"></path>
<path fill="#fff" opacity="0.54" d="M15.643 17.893h-14.706c-0.518 0-0.938 0.42-0.938 0.938s0.42 0.937 0.938 0.937h14.706c2.126 0 3.857 1.73 3.857 3.857s-1.73 3.857-3.857 3.857c-0.875 0-1.732-0.302-2.414-0.849-0.404-0.324-0.994-0.26-1.318 0.144s-0.26 0.994 0.144 1.318c1.014 0.814 2.288 1.262 3.588 1.262 3.16 0 5.732-2.571 5.732-5.732s-2.571-5.732-5.732-5.732z"></path>
<path fill="#fff" opacity="0.54" d="M0.938 12.268h1.265c0.518 0 0.938-0.42 0.938-0.938s-0.42-0.938-0.938-0.938h-1.265c-0.518 0-0.938 0.42-0.938 0.938s0.42 0.938 0.938 0.938z"></path>
<path fill="#fff" opacity="0.54" d="M12.25 22.563c0-0.518-0.42-0.938-0.938-0.938h-5.625c-0.518 0-0.938 0.42-0.938 0.938s0.42 0.937 0.938 0.937h5.625c0.518 0 0.938-0.42 0.938-0.937z"></path>
</svg>
