<!-- Generated by IcoMoon.io -->
<svg version="1.1" xmlns="http://www.w3.org/2000/svg" width="20" height="20" viewBox="0 0 32 32">
<title>humidity</title>
<path fill="#fff" opacity="0.54" d="M28.62 9.399c-0.597-1.021-1.234-1.986-1.796-2.718-0.828-1.079-1.316-1.461-1.868-1.461-0.523 0-0.948 0.366-1.426 0.916-0.352 0.405-0.771 0.966-1.212 1.624-0.632 0.942-1.24 1.969-1.759 2.965-0.556-1.066-1.076-1.985-1.461-2.643-1.203-2.059-2.486-4.001-3.613-5.47-1.848-2.409-2.542-2.61-3.048-2.61s-1.201 0.202-3.049 2.611c-1.127 1.469-2.41 3.411-3.612 5.47-1.446 2.474-4.808 8.639-4.808 12.451 0 6.324 5.145 11.469 11.469 11.469 5.934 0 10.829-4.529 11.411-10.312 0.364 0.067 0.734 0.102 1.108 0.102 3.35 0 6.075-2.725 6.075-6.075 0-1.906-1.511-4.776-2.411-6.316zM12.438 30.125c-5.29 0-9.594-4.304-9.594-9.594 0-2.233 1.6-6.358 4.279-11.034 2.392-4.173 4.524-6.857 5.315-7.519 0.791 0.662 2.923 3.345 5.315 7.519 2.679 4.676 4.279 8.801 4.279 11.034 0 5.29-4.304 9.594-9.594 9.594zM24.956 19.915c-0.371 0-0.736-0.049-1.090-0.143-0.207-2.066-1.186-4.634-2.256-6.925 1.042-2.328 2.589-4.622 3.345-5.498 0.477 0.55 1.322 1.709 2.262 3.37 1.214 2.147 1.939 4.014 1.939 4.995 0 2.316-1.884 4.2-4.2 4.2z"></path>
<path fill="#fff" opacity="0.54" d="M15.011 16.073c-0.448-0.259-1.022-0.105-1.281 0.343l-4.21 7.293c-0.259 0.448-0.105 1.022 0.343 1.281 0.148 0.085 0.309 0.126 0.468 0.126 0.324 0 0.639-0.168 0.813-0.469l4.21-7.293c0.259-0.448 0.105-1.022-0.343-1.281z"></path>
<path fill="#fff" opacity="0.54" d="M10.094 17.937c0-0.516-0.421-0.937-0.938-0.937s-0.938 0.421-0.938 0.937c0 0.516 0.421 0.938 0.938 0.938s0.938-0.421 0.938-0.938z"></path>
<path fill="#fff" opacity="0.54" d="M15.406 22.312c-0.516 0-0.938 0.421-0.938 0.937s0.421 0.938 0.938 0.938c0.516 0 0.938-0.421 0.938-0.938s-0.421-0.937-0.938-0.937z"></path>
</svg>
